<svg width="78" height="79" viewBox="0 0 78 79" fill="none" xmlns="http://www.w3.org/2000/svg">
<g id="Facebook">
<rect id="LinkContainer" x="0.890503" y="1.48413" width="76.4736" height="76.4736" rx="15.5" fill="#082954" stroke="#1977F3"/>
<path id="Vector" d="M53.4985 15.2899C53.4985 14.9088 53.3471 14.5432 53.0776 14.2737C52.8081 14.0042 52.4426 13.8528 52.0614 13.8528H44.8758C41.2575 13.6726 37.7149 14.9318 35.0221 17.3553C32.3293 19.7788 30.7052 23.1696 30.5046 26.7869V34.5473H23.319C22.9379 34.5473 22.5723 34.6987 22.3028 34.9683C22.0333 35.2378 21.8819 35.6033 21.8819 35.9845V43.4575C21.8819 43.8386 22.0333 44.2042 22.3028 44.4737C22.5723 44.7432 22.9379 44.8946 23.319 44.8946H30.5046V64.152C30.5046 64.5331 30.656 64.8987 30.9255 65.1682C31.1951 65.4377 31.5606 65.5891 31.9417 65.5891H40.5645C40.9456 65.5891 41.3111 65.4377 41.5807 65.1682C41.8502 64.8987 42.0016 64.5331 42.0016 64.152V44.8946H49.5321C49.8517 44.8992 50.1637 44.7971 50.4187 44.6045C50.6738 44.4119 50.8574 44.1398 50.9405 43.8311L53.0099 36.3581C53.0671 36.1458 53.0748 35.9231 53.0324 35.7073C52.99 35.4916 52.8986 35.2884 52.7654 35.1135C52.6321 34.9386 52.4604 34.7966 52.2637 34.6984C52.0669 34.6002 51.8502 34.5486 51.6303 34.5473H42.0016V26.7869C42.0731 26.0754 42.4072 25.4162 42.9386 24.9379C43.4701 24.4595 44.1608 24.1965 44.8758 24.2001H52.0614C52.4426 24.2001 52.8081 24.0487 53.0776 23.7791C53.3471 23.5096 53.4985 23.1441 53.4985 22.763V15.2899Z" fill="#1977F3"/>
</g>
</svg>
