<svg width="86" height="86" viewBox="0 0 86 86" fill="none" xmlns="http://www.w3.org/2000/svg">
<g id="LOGO">
<rect id="Rectangle 1" x="0.626709" y="0.40332" width="85.3032" height="85.3032" rx="13" fill="#0D0D0D"/>
<path id="Vector 3" d="M34.4068 45.6994C40.9581 32.5058 56.9268 34.174 64.0923 36.6572L64.1492 36.6004L64.206 36.316L63.6373 35.1786C55.2966 30.5723 37.4322 23.2134 32.7007 30.6291C27.9692 38.0448 31.8666 43.7658 34.4068 45.6994Z" fill="#ABABAB"/>
<path id="Vector 2" d="M29.4023 23.0087C33.7812 25.5678 37.1933 25.6246 37.4777 25.6246L41.5154 24.3166H49.477L62.1588 32.847C62.481 33.0176 63.1369 33.3702 63.1824 33.4157C63.2279 33.4612 63.6563 34.0412 63.8648 34.3256L64.1492 36.3728C59.7816 32.0963 49.6666 31.52 45.155 31.7665C37.5118 32.3579 33.6675 31.2167 32.7007 30.5722C28.8791 28.5249 28.9095 24.6768 29.4023 23.0087Z" fill="#D3D3D3"/>
<path id="Vector 1" d="M38.5582 19.4828C33.3263 18.3454 31.1084 16.355 30.6534 15.502C28.8791 22.8267 35.184 25.454 38.5582 25.8521C58.758 28.8093 64.0354 34.2497 64.1492 36.6003L64.206 36.4865C64.297 36.3046 64.1681 34.97 64.0923 34.3255C63.7283 31.5048 60.5664 29.8139 59.031 29.3211C55.5051 22.7812 50.1026 22.0419 49.7613 21.9281C49.4201 21.8144 45.0981 20.9045 38.5582 19.4828Z" fill="white"/>
<g id="Vector">
<path d="M20.8474 58.18V60.5376H15.9158V63.0845H19.6058V65.3733H15.9158V70.2606H12.9672V58.18H20.8474Z" fill="white"/>
<path d="M25.3457 60.5376V62.9813H29.2944V65.2528H25.3457V67.903H29.8117V70.2606H22.3971V58.18H29.8117V60.5376H25.3457Z" fill="white"/>
<path d="M42.5546 70.2606H39.606L34.6745 62.8092V70.2606H31.7259V58.18H34.6745L39.606 65.6659V58.18H42.5546V70.2606Z" fill="white"/>
<path d="M55.5207 70.2606H52.5721L47.6406 62.8092V70.2606H44.692V58.18H47.6406L52.5721 65.6659V58.18H55.5207V70.2606Z" fill="white"/>
<path d="M60.6066 58.18V70.2606H57.658V58.18H60.6066Z" fill="white"/>
<path d="M70.158 70.2606L67.6922 66.5607L65.5196 70.2606H62.1744L66.0541 64.1171L62.0882 58.18H65.5196L67.9509 61.8283L70.089 58.18H73.4342L69.589 64.2719L73.5894 70.2606H70.158Z" fill="white"/>
<path d="M65.5675 58.2144C64.7053 57.1818 62.1189 58.2144 62.1189 58.2144C62.1189 58.2144 68.5851 69.1851 70.0939 70.2606C71.1898 71.0419 73.5425 70.2606 73.5425 70.2606C73.5425 70.2606 66.6452 59.5051 65.5675 58.2144Z" fill="#CCCCCC"/>
<path d="M39.6067 70.2606C38.9301 69.7868 31.7259 58.18 31.7259 58.18C31.7259 58.18 33.7073 57.9905 34.6739 58.18C35.6404 58.3695 42.5546 70.2606 42.5546 70.2606C42.5546 70.2606 40.2832 70.7345 39.6067 70.2606Z" fill="#CCCCCC"/>
</g>
</g>
</svg>
