<svg width="79" height="79" viewBox="0 0 79 79" fill="none" xmlns="http://www.w3.org/2000/svg">
<g id="OurWeb">
<rect id="LinkContainer" x="1.38135" y="1.48413" width="76.4736" height="76.4736" rx="15.5" fill="#003D1F" stroke="#00FF85"/>
<path id="Vector" d="M19.4589 46.8462H30.5262C30.2592 44.5955 30.1179 42.2017 30.1179 39.721C30.1179 37.2403 30.2592 34.8465 30.5262 32.5958H19.4589C18.6712 34.8244 18.2426 37.2227 18.2426 39.721C18.2426 42.2193 18.6712 44.6176 19.4589 46.8462ZM20.4645 49.2213C23.2917 54.9104 28.579 59.1612 34.9345 60.5819C33.0841 58.0631 31.6668 54.0596 30.8631 49.2213H20.4645ZM59.7774 46.8462C60.5651 44.6176 60.9938 42.2193 60.9938 39.721C60.9938 37.2227 60.5651 34.8244 59.7774 32.5958H48.7101C48.9771 34.8465 49.1184 37.2403 49.1184 39.721C49.1184 42.2017 48.9771 44.5955 48.7101 46.8462H59.7774ZM58.7718 49.2213H48.3732C47.5695 54.0596 46.1522 58.0631 44.3018 60.5819C50.6573 59.1612 55.9446 54.9104 58.7718 49.2213ZM32.9309 46.8462H46.3054C46.5866 44.6193 46.7434 42.2215 46.7434 39.721C46.7434 37.2205 46.5866 34.8227 46.3054 32.5958H32.9309C32.6497 34.8227 32.493 37.2205 32.493 39.721C32.493 42.2215 32.6497 44.6193 32.9309 46.8462ZM33.2886 49.2213C34.5288 56.2701 37.0485 61.0966 39.6182 61.0966C42.1878 61.0966 44.7075 56.2701 45.9478 49.2213H33.2886ZM20.4645 30.2207H30.8631C31.6668 25.3824 33.0841 21.3789 34.9345 18.8601C28.579 20.2808 23.2917 24.5316 20.4645 30.2207ZM58.7718 30.2207C55.9446 24.5316 50.6573 20.2808 44.3018 18.8601C46.1522 21.3789 47.5695 25.3824 48.3732 30.2207H58.7718ZM33.2886 30.2207H45.9478C44.7075 23.1719 42.1878 18.3454 39.6182 18.3454C37.0485 18.3454 34.5288 23.1719 33.2886 30.2207ZM39.6182 63.4717C26.501 63.4717 15.8675 52.8381 15.8675 39.721C15.8675 26.6039 26.501 15.9703 39.6182 15.9703C52.7353 15.9703 63.3688 26.6039 63.3688 39.721C63.3688 52.8381 52.7353 63.4717 39.6182 63.4717Z" fill="#00FF85"/>
</g>
</svg>
