<svg width="79" height="79" viewBox="0 0 79 79" fill="none" xmlns="http://www.w3.org/2000/svg">
<g id="Tiktok">
<rect id="LinkContainer" x="1.14508" y="1.48413" width="76.4736" height="76.4736" rx="15.5" fill="#3D0022" stroke="#DF007D"/>
<path id="Vector" d="M40.4562 15.2261C43.1347 15.1852 45.7927 15.2056 48.4507 15.1852C48.6142 18.3134 49.7388 21.5031 52.0288 23.7112C54.3187 25.9808 57.5492 27.0235 60.6979 27.3711V35.6109C57.7537 35.5087 54.789 34.8953 52.1105 33.6276C50.9451 33.096 49.8615 32.4213 48.7983 31.7261C48.7778 37.6964 48.8187 43.6667 48.7574 49.6166C48.5938 52.479 47.6533 55.321 45.9971 57.6724C43.3187 61.598 38.6774 64.1538 33.9134 64.2356C30.9896 64.3991 28.0658 63.6017 25.5714 62.1296C21.4413 59.6965 18.5379 55.2393 18.1085 50.4548C18.0676 49.4325 18.0472 48.4102 18.0881 47.4084C18.4561 43.5236 20.3781 39.8024 23.3632 37.2671C26.7573 34.3228 31.5008 32.912 35.9376 33.7503C35.9785 36.7764 35.8558 39.8024 35.8558 42.8284C33.8316 42.1741 31.4599 42.3582 29.6811 43.5849C28.393 44.4232 27.4115 45.7113 26.9004 47.163C26.471 48.2058 26.5937 49.3508 26.6141 50.4548C27.1049 53.808 30.3354 56.6296 33.7703 56.3229C36.0603 56.3025 38.248 54.9735 39.4339 53.0311C39.8224 52.3563 40.2517 51.6612 40.2722 50.8638C40.4767 47.2039 40.3949 43.5645 40.4153 39.9046C40.4358 31.6648 40.3949 23.4454 40.4562 15.2261Z" fill="#DF007D"/>
</g>
</svg>
