<svg width="78" height="79" viewBox="0 0 78 79" fill="none" xmlns="http://www.w3.org/2000/svg">
<g id="Youtube">
<rect id="LinkContainer" x="0.635925" y="1.48413" width="76.4736" height="76.4736" rx="15.5" fill="#300000" stroke="#DF0000"/>
<path id="Vector" d="M50.7481 20.7119H26.9974C19.8722 20.7119 15.1221 25.462 15.1221 32.5872V46.8376C15.1221 53.9628 19.8722 58.713 26.9974 58.713H50.7481C57.8733 58.713 62.6234 53.9628 62.6234 46.8376V32.5872C62.6234 25.462 57.8733 20.7119 50.7481 20.7119ZM43.3616 42.1588L37.4952 45.6739C35.1201 47.0989 33.1725 46.0064 33.1725 43.2275V36.1736C33.1725 33.3948 35.1201 32.3023 37.4952 33.7273L43.3616 37.2424C45.6179 38.6199 45.6179 40.805 43.3616 42.1588Z" fill="#DF0000"/>
</g>
</svg>
